<svg id="Capa_1" enable-background="new 0 0 512 512" height="512" viewBox="0 0 512 512" width="512" xmlns="http://www.w3.org/2000/svg"><g><path d="m306.47 272h-101.882c-32.728 0-59.26-26.532-59.26-59.26v-52.525h220.402v52.525c0 32.728-26.531 59.26-59.26 59.26z" fill="#433f43"/><path d="m256 373.203 68.967-65.03-10.153-3.519-5.532-.795c-7.608-1.093-13.256-7.61-13.256-15.296v-48.502h-80.051v48.502c0 7.686-5.648 14.203-13.256 15.296l-17.04 2.447v.006z" fill="#fed2a4"/><path d="m246.88 288.564v-48.502h-30.906v48.502c0 7.686-5.648 14.203-13.256 15.296l-17.04 2.447v.006l5.528 3.639 42.417-6.092c7.609-1.093 13.257-7.61 13.257-15.296z" fill="#ffbd86"/><path d="m366.856 312.129-29.028-4.169-12.861 3.304-68.967 41.335-70.32-46.286v-.006l-40.535 5.822c-31.445 4.516-54.791 31.455-54.791 63.223v129.434c0 3.983 3.229 7.211 7.211 7.211h316.87c3.983 0 7.211-3.229 7.211-7.211v-129.434c0-31.767-23.346-58.706-54.79-63.223z" fill="#fe646f"/><path d="m185.679 306.307-40.535 5.822c-31.445 4.516-54.791 31.455-54.791 63.223v129.434c0 3.983 3.229 7.211 7.211 7.211h23.694v-136.645c0-31.767 23.346-58.706 54.791-63.223l15.158-2.177-5.528-3.639z" fill="#e53950"/><path d="m352.943 191.999h-193.888c-31.275 0-53.576-30.333-44.249-60.185 12.607-40.344 49.97-67.814 92.239-67.814h97.907c42.268 0 79.632 27.469 92.239 67.814 9.329 29.851-12.973 60.185-44.248 60.185z" fill="#554e56"/><path d="m135.41 131.815c12.606-40.345 49.97-67.815 92.238-67.815h-20.604c-42.268 0-79.632 27.47-92.238 67.815-9.328 29.851 12.974 60.185 44.248 60.185h20.604c-31.274-.001-53.576-30.334-44.248-60.185z" fill="#433f43"/><path d="m256.848 271.321-1.525-1.261c-42.813 0-69.644-45.623-69.644-88.436l-7.199-47.735c0-20.926 16.964-37.89 37.89-37.89h79.259c20.926 0 37.89 16.964 37.89 37.89v60.591c0 39.179-29.473 71.624-67.217 76.841 0 0-5.82 0-9.454 0z" fill="#fff3de"/><path d="m199.084 194.481v-60.591c0-20.926 16.964-37.89 37.89-37.89h-20.604c-20.926 0-37.89 16.964-37.89 37.89v60.591c.001 42.812 34.707 77.519 77.52 77.519 3.493 0 6.931-.231 10.302-.679-37.943-5.038-67.218-37.52-67.218-76.84z" fill="#ffe5c2"/><g><path d="m227.787 167.941h-10.141c-4.267 0-7.726-3.459-7.726-7.726s3.459-7.726 7.726-7.726h10.141c4.267 0 7.726 3.459 7.726 7.726s-3.459 7.726-7.726 7.726z" fill="#a44f3e"/></g><g><path d="m294.354 167.941h-10.141c-4.268 0-7.726-3.459-7.726-7.726s3.459-7.726 7.726-7.726h10.141c4.268 0 7.726 3.459 7.726 7.726s-3.458 7.726-7.726 7.726z" fill="#a44f3e"/></g><g><path d="m256 240.611c-14.945 0-27.103-12.158-27.103-27.103 0-4.267 3.459-7.726 7.726-7.726s7.726 3.459 7.726 7.726c0 6.424 5.226 11.65 11.65 11.65s11.65-5.226 11.65-11.65c0-4.267 3.459-7.726 7.726-7.726 4.268 0 7.726 3.459 7.726 7.726.002 14.945-12.156 27.103-27.101 27.103z" fill="#fe646f"/></g><g><g><path d="m337.828 307.962-149.583 98.486c-1.308.865-15.236 7.366-16.72 5.11-2.349-3.564-6.315-8.138-2.751-10.487l146.039-96.415 10.158 1.463z" fill="#f9f7f8"/></g></g><g><path d="m351.999 39.727h-191.73c-4.267 0-7.726-3.459-7.726-7.726s3.459-7.726 7.726-7.726h191.731c4.268 0 7.726 3.459 7.726 7.726s-3.459 7.726-7.727 7.726z" fill="#e2dee2"/></g><path d="m256.476 128h-.952c-20.052 0-38.327-11.5-47.003-29.578l-11.387-23.727c-3.379-7.04-5.133-14.75-5.133-22.559-.001-28.794 23.341-52.136 52.136-52.136h23.727c28.793 0 52.136 23.342 52.136 52.136 0 7.809-1.754 15.518-5.133 22.559l-11.387 23.727c-8.677 18.078-26.952 29.578-47.004 29.578z" fill="#685e68"/><path d="m229.124 98.422-11.387-23.727c-3.379-7.04-5.133-14.749-5.133-22.559 0-28.794 23.342-52.136 52.136-52.136h-20.604c-28.794 0-52.136 23.342-52.136 52.136 0 7.809 1.754 15.518 5.133 22.559l11.387 23.727c8.676 18.078 26.951 29.578 47.003 29.578h.952c3.336 0 6.624-.319 9.826-.933-16.041-3.077-29.944-13.575-37.177-28.645z" fill="#554e56"/><path d="m144 401.068h223.999v47.1h-223.999z" fill="#f9f7f8"/><path d="m144 401.068h20.604v47.1h-20.604z" fill="#e2dee2"/><g><path d="m136.272 512v-128c0-4.265 3.461-7.726 7.726-7.726s7.726 3.461 7.726 7.726v128z" fill="#e53950"/></g><g><path d="m360.275 512v-128c0-4.265 3.461-7.726 7.726-7.726s7.726 3.461 7.726 7.726v128z" fill="#e53950"/></g></g></svg>